<?xml version="1.0" encoding="utf-8"?>
<!-- Generator: Adobe Illustrator 21.0.1, SVG Export Plug-In . SVG Version: 6.00 Build 0)  -->
<svg version="1.1" id="Layer_1" xmlns="http://www.w3.org/2000/svg" xmlns:xlink="http://www.w3.org/1999/xlink" x="0px" y="0px"
	 viewBox="0 0 58 51" style="enable-background:new 0 0 58 51;" xml:space="preserve">
<style type="text/css">
	.st0{fill:#0BD9B2;}
</style>
<g>
	<path class="st0" d="M30.7,13.1c-0.3-0.3-0.9-0.4-1.7-0.4h-2.5V16H29c0.8,0,1.4-0.1,1.7-0.4c0.3-0.2,0.5-0.6,0.5-1.2
		C31.2,13.8,31.1,13.4,30.7,13.1z"/>
	<path class="st0" d="M0.4,0.2L29,51L57.6,0.2H0.4z M34.4,23.5c-0.3,0.3-0.7,0.4-1.2,0.4c-0.3,0-0.6-0.1-0.9-0.2
		c-0.3-0.1-0.5-0.4-0.7-0.6l-2.5-3.7c-0.2-0.3-0.4-0.4-0.6-0.6c-0.2-0.1-0.4-0.2-0.7-0.2h-1.3v3.5c0,0.5-0.2,1-0.5,1.3
		c-0.3,0.3-0.7,0.5-1.3,0.5s-1-0.2-1.3-0.5c-0.3-0.3-0.5-0.7-0.5-1.3V11.7c0-0.5,0.1-0.9,0.4-1.2c0.3-0.3,0.7-0.4,1.2-0.4h4.9
		c1.7,0,2.9,0.4,3.7,1.1c0.8,0.7,1.3,1.8,1.3,3.1c0,1-0.3,1.9-0.9,2.6c-0.6,0.7-1.4,1.2-2.4,1.4c0.4,0.1,0.8,0.2,1.1,0.4
		c0.3,0.2,0.6,0.6,0.9,1l1.2,1.7c0.2,0.3,0.3,0.7,0.3,1C34.9,22.9,34.8,23.2,34.4,23.5z"/>
</g>
</svg>
